<svg width="72" height="72" fill="none" xmlns="http://www.w3.org/2000/svg"><rect width="72" height="72" rx="36" fill="#6B46C1"/><g clip-path="url(#clip0_1865_5476)"><path d="M35.999 34.334a8.334 8.334 0 0 1 8.333 8.333v10h-3.333v-10a5 5 0 0 0-4.707-4.992l-.293-.008a5 5 0 0 0-4.992 4.706l-.008.294v10h-3.334v-10A8.333 8.333 0 0 1 36 34.333zm-10.834 5c.465 0 .917.054 1.35.156a9.907 9.907 0 0 0-.501 2.625l-.015.552v.143a2.484 2.484 0 0 0-.594-.133l-.24-.01a2.5 2.5 0 0 0-2.488 2.26l-.012.24v7.5h-3.333v-7.5a5.833 5.833 0 0 1 5.833-5.834zm21.667 0a5.833 5.833 0 0 1 5.833 5.833v7.5h-3.333v-7.5a2.5 2.5 0 0 0-2.26-2.489l-.24-.011c-.292 0-.572.05-.833.142v-.142a9.94 9.94 0 0 0-.515-3.174 5.7 5.7 0 0 1 1.348-.16zm-21.667-10a4.167 4.167 0 1 1 0 8.333 4.167 4.167 0 0 1 0-8.334zm21.667 0a4.167 4.167 0 1 1 0 8.333 4.167 4.167 0 0 1 0-8.334zm-21.667 3.333a.833.833 0 1 0 0 1.667.833.833 0 0 0 0-1.667zm21.667 0a.833.833 0 1 0 0 1.666.833.833 0 0 0 0-1.666zM35.999 19.333a6.667 6.667 0 1 1 0 13.334 6.667 6.667 0 0 1 0-13.334zm0 3.334a3.333 3.333 0 1 0 0 6.666 3.333 3.333 0 0 0 0-6.666z" fill="#fff"/></g><defs><clipPath id="clip0_1865_5476"><path fill="#fff" transform="translate(16 16)" d="M0 0H40V40H0z"/></clipPath></defs></svg>