<svg width="72" height="72" fill="none" xmlns="http://www.w3.org/2000/svg"><rect width="72" height="72" rx="36" fill="#6B46C1"/><g clip-path="url(#clip0_1865_5485)"><path d="M49.335 21v23.333A6.667 6.667 0 1 1 46 38.558V24.333h-15v20a6.667 6.667 0 1 1-3.333-5.775V21h21.667zm-25 26.667a3.334 3.334 0 1 0 0-6.668 3.334 3.334 0 0 0 0 6.668zm18.333 0a3.333 3.333 0 1 0 0-6.667 3.333 3.333 0 0 0 0 6.667z" fill="#fff"/></g><defs><clipPath id="clip0_1865_5485"><path fill="#fff" transform="translate(16 16)" d="M0 0H40V40H0z"/></clipPath></defs></svg>