<svg width="72" height="72" fill="none" xmlns="http://www.w3.org/2000/svg"><rect width="72" height="72" rx="36" fill="#6B46C1"/><g clip-path="url(#clip0_1848_4279)" fill="#fff"><path fill-rule="evenodd" clip-rule="evenodd" d="M31.737 23.367a8.865 8.865 0 0 0-.459-3.355 16.672 16.672 0 0 1 4.725-.679c9.205 0 16.666 7.462 16.666 16.667 0 9.205-7.461 16.666-16.666 16.666S19.336 45.205 19.336 36c0-1.64.237-3.224.678-4.721a8.862 8.862 0 0 0 3.355.457 13.33 13.33 0 0 0 3.206 13.692 13.333 13.333 0 1 0 5.162-22.06zm-4.468 12.228l7.072 7.071 11.785-11.785-2.358-2.356-9.427 9.428-4.715-4.715-2.357 2.357z"/><path d="M22.878 28.604a5.73 5.73 0 1 1 0-11.458 5.73 5.73 0 0 1 0 11.458zm0-1.145a4.583 4.583 0 1 0 0-9.167 4.583 4.583 0 0 0 0 9.166zm.573-4.584h2.291v1.146h-3.437v-4.01h1.146v2.864z"/></g><defs><clipPath id="clip0_1848_4279"><path fill="#fff" transform="translate(16 16)" d="M0 0H40V40H0z"/></clipPath></defs></svg>