<svg width="72" height="72" fill="none" xmlns="http://www.w3.org/2000/svg"><rect width="72" height="72" rx="36" fill="#6B46C1"/><g clip-path="url(#clip0_1848_4270)"><path d="M26.39 26.755a13.333 13.333 0 0 0 14.695 21.573c.192-1.25-.228-2.45-.4-2.87-.383-.933-1.646-2.528-3.755-4.74-.563-.591-.526-1.046-.325-2.395l.022-.151c.137-.923.367-1.47 3.475-1.963 1.58-.25 1.995.38 2.57 1.255l.193.286c.547.8.952.983 1.564 1.26.275.125.616.284 1.075.542 1.086.621 1.086 1.323 1.086 2.86v.175c0 .651-.063 1.225-.163 1.723a13.336 13.336 0 0 0-5.175-20.568c-.922.621-2.187 1.503-2.628 2.108-.225.308-.545 1.887-1.584 2.017-.27.033-.635.01-1.021-.015-1.037-.067-2.454-.159-2.907 1.073-.288.78-.338 2.9.593 4 .15.175.179.5.077.865-.133.479-.402.77-.487.83-.16-.093-.48-.465-.698-.716-.522-.609-1.175-1.367-2.018-1.6-.307-.086-.644-.156-.972-.226-.915-.191-1.95-.41-2.192-.923-.176-.377-.175-.895-.175-1.442 0-.695 0-1.48-.34-2.241a2.126 2.126 0 0 0-.51-.717zM36 52.667c-9.205 0-16.667-7.462-16.667-16.667 0-9.205 7.462-16.666 16.667-16.666 9.205 0 16.666 7.461 16.666 16.666S45.204 52.667 36 52.667z" fill="#fff"/></g><defs><clipPath id="clip0_1848_4270"><path fill="#fff" transform="translate(16 16)" d="M0 0H40V40H0z"/></clipPath></defs></svg>